# xmcd CD database file
#
# Track frame offsets:
#	150
#	15850
#	28809
#	38867
#	49286
#	71465
#	85494
#	97919
#	115710
#	125584
#	149152
#	164114
#	177744
#	193095
#	211362
#	225245
#	243791
#	263562
#	276293
#	292264
#
# Disc length: 4086 seconds
#
# Revision: 0
# Processed by: cddbd v1.5.2PL0 Copyright (c) Steve Scherf et al.
# Submitted via: CDex 1.51
#
DISCID=2c0ff414
DTITLE=Various Artist - Gin Bottle Jazz
DYEAR=1960
DGENRE=Jazz
TTITLE0=Bob Helm's Riverside Roustabouts - Riverside Blues
TTITLE1=Bob Helm's Riverside Roustabouts - Dawn Club Joys
TTITLE2=Bob Helm's Riverside Roustabouts - Back Side O' Town
TTITLE3=Bob Helm's Riverside Roustabouts - Doin' The Plymouth Rock
TTITLE4=Bob Helm's Riverside Roustabouts - Bob Helm's Riverside Roustabouts - How'm I Gonna Do It (etc)
TTITLE5=Bob Helm's Riverside Roustabouts - I Don't Want Any More
TTITLE6=Bob Helm's Riverside Roustabouts - Seagull Strut
TTITLE7=Bob Helm's Riverside Roustabouts - Daybreak Blues
TTITLE8=Carl Halen's Gin Bottle Seven - Four Or Five times
TTITLE9=Carl Halen's Gin Bottle Seven - Agravatin' Mama
TTITLE10=Carl Halen's Gin Bottle Seven - Shake That Thing
TTITLE11=Carl Halen's Gin Bottle Seven - Nagasaki
TTITLE12=Carl Halen's Gin Bottle Seven - Angry
TTITLE13=Carl Halen's Gin Bottle Seven - Apex Blues
TTITLE14=Carl Halen's Gin Bottle Seven - Eccentric Rag
TTITLE15=Carl Halen's Gin Bottle Seven - Wolverine Blues
TTITLE16=Carl Halen's Gin Bottle Seven - Pallet On The Floor
TTITLE17=Carl Halen's Gin Bottle Seven - Dallas Blues
TTITLE18=Carl Halen's Gin Bottle Seven - Oh, Baby
TTITLE19=Carl Halen's Gin Bottle Seven - Milenburg Joys
EXTD=YEAR: 1960
EXTT0=
EXTT1=
EXTT2=
EXTT3=
EXTT4=
EXTT5=
EXTT6=
EXTT7=
EXTT8=
EXTT9=
EXTT10=
EXTT11=
EXTT12=
EXTT13=
EXTT14=
EXTT15=
EXTT16=
EXTT17=
EXTT18=
EXTT19=
PLAYORDER=
